HIERARCHY
ROOT Hips
{
	OFFSET 0.000000 0.000000 0.000000
	CHANNELS 6 Xposition Yposition Zposition Zrotation Xrotation Yrotation
	JOINT Spine1
	{
		OFFSET 0.000000 0.000001 -2.776947
		CHANNELS 6 Xposition Yposition Zposition Zrotation Xrotation Yrotation
		JOINT Neck
		{
			OFFSET 0.000000 0.000001 -2.213880
			CHANNELS 6 Xposition Yposition Zposition Zrotation Xrotation Yrotation
			JOINT Head
			{
				OFFSET 0.000000 0.181636 -1.407680
				CHANNELS 6 Xposition Yposition Zposition Zrotation Xrotation Yrotation
				End Site
				{
					OFFSET 0.000000 0.000001 -1.816356
				}
			}
		}
		JOINT LeftShoulder
		{
			OFFSET 0.365767 -0.048012 -1.787590
			CHANNELS 6 Xposition Yposition Zposition Zrotation Xrotation Yrotation
			JOINT LeftArm
			{
				OFFSET 1.305160 0.000000 0.000000
				CHANNELS 6 Xposition Yposition Zposition Zrotation Xrotation Yrotation
				JOINT LeftForeArm
				{
					OFFSET 2.559210 0.000000 0.000000
					CHANNELS 6 Xposition Yposition Zposition Zrotation Xrotation Yrotation
					JOINT LeftHand
					{
						OFFSET 2.378449 0.000000 0.000000
						CHANNELS 6 Xposition Yposition Zposition Zrotation Xrotation Yrotation
						End Site
						{
							OFFSET 1.362267 0.000000 0.000000
						}
					}
				}
			}
		}
		JOINT RightShoulder
		{
			OFFSET -0.360721 -0.048012 -1.787590
			CHANNELS 6 Xposition Yposition Zposition Zrotation Xrotation Yrotation
			JOINT RightArm
			{
				OFFSET -1.305160 0.000000 0.000000
				CHANNELS 6 Xposition Yposition Zposition Zrotation Xrotation Yrotation
				JOINT RightForeArm
				{
					OFFSET -2.559210 0.000000 0.000000
					CHANNELS 6 Xposition Yposition Zposition Zrotation Xrotation Yrotation
					JOINT RightHand
					{
						OFFSET -2.378450 0.000000 0.000000
						CHANNELS 6 Xposition Yposition Zposition Zrotation Xrotation Yrotation
						End Site
						{
							OFFSET -1.362267 0.000000 0.000000
						}
					}
				}
			}
		}
	}
	JOINT LeftUpLeg
	{
		OFFSET 0.908180 0.000000 0.000000
		CHANNELS 6 Xposition Yposition Zposition Zrotation Xrotation Yrotation
		JOINT LeftLeg
		{
			OFFSET 0.000000 -0.000002 3.819490
			CHANNELS 6 Xposition Yposition Zposition Zrotation Xrotation Yrotation
			JOINT LeftFoot
			{
				OFFSET 0.000000 -0.000002 4.004300
				CHANNELS 6 Xposition Yposition Zposition Zrotation Xrotation Yrotation
				JOINT LeftToeBase
				{
					OFFSET 0.000000 1.362270 0.590317
					CHANNELS 6 Xposition Yposition Zposition Zrotation Xrotation Yrotation
					End Site
					{
						OFFSET 0.000000 0.363271 0.000000
					}
				}
			}
		}
	}
	JOINT RightUpLeg
	{
		OFFSET -0.908180 0.000000 0.000000
		CHANNELS 6 Xposition Yposition Zposition Zrotation Xrotation Yrotation
		JOINT RightLeg
		{
			OFFSET 0.000000 -0.000002 3.819490
			CHANNELS 6 Xposition Yposition Zposition Zrotation Xrotation Yrotation
			JOINT RightFoot
			{
				OFFSET 0.000000 -0.000002 4.004300
				CHANNELS 6 Xposition Yposition Zposition Zrotation Xrotation Yrotation
				JOINT RightToeBase
				{
					OFFSET 0.000000 1.362270 0.590317
					CHANNELS 6 Xposition Yposition Zposition Zrotation Xrotation Yrotation
					End Site
					{
						OFFSET 0.000000 0.363271 0.000000
					}
				}
			}
		}
	}
}
MOTION
Frames: 6
Frame Time: 0.041667
-0.394766 0.208460 -7.578570 1.236381 18.402621 1.972615 -0.000000 0.000002 -2.776947 4.523362 -19.530489 12.425659 -0.000000 0.000002 -2.213881 4.192010 10.861108 3.999151 0.000001 0.181636 -1.407678 2.771164 -0.230217 -10.060349 0.365766 -0.048012 -1.787588 -0.170571 -3.752242 17.611158 1.305160 -0.000001 -0.000002 6.506470 -12.273476 -8.733432 2.559210 -0.000000 0.000002 1.372703 -13.020343 0.195658 2.378449 0.000003 -0.000001 -13.983649 -13.443397 3.523163 -0.360721 -0.048012 -1.787591 4.150314 -1.344005 -13.701594 -1.305160 0.000001 -0.000001 -27.337988 21.999805 17.145699 -2.559210 0.000001 0.000001 -70.090220 32.766033 -37.388134 -2.378451 0.000002 0.000003 2.238913 6.282811 -34.264054 0.908180 0.000000 0.000001 -17.721016 -35.801748 13.612358 0.000000 -0.000002 3.819488 -16.216300 28.971477 -2.399737 -0.000001 -0.000002 4.004301 -18.108037 6.105237 -7.224654 -0.000000 1.362270 0.590317 0.000007 -0.000003 -0.000001 -0.908180 0.000000 0.000001 -12.819290 -26.851372 -33.422803 0.000001 -0.000002 3.819489 20.187089 28.061733 11.814062 0.000001 -0.000002 4.004303 27.014281 -1.554543 13.054189 -0.000000 1.362270 0.590317 0.000010 -0.000001 0.000002 
-0.396702 0.208999 -7.577633 1.168608 18.388623 1.922334 0.000000 0.000002 -2.776945 4.488245 -19.546963 12.339171 0.000000 0.000001 -2.213879 3.932915 10.915645 3.734396 0.000001 0.181636 -1.407682 2.567059 -0.083067 -9.804034 0.365766 -0.048012 -1.787588 -0.185773 -3.896039 17.538804 1.305161 -0.000000 -0.000002 6.887565 -12.248354 -8.478498 2.559211 -0.000002 0.000001 1.399787 -12.954040 0.146419 2.378448 0.000002 0.000002 -13.926640 -13.399918 3.733296 -0.360721 -0.048011 -1.787590 4.167623 -1.376239 -13.758510 -1.305161 0.000001 0.000000 -27.406742 21.969560 17.453737 -2.559211 0.000001 0.000001 -70.048453 32.731639 -37.351064 -2.378452 0.000002 -0.000001 2.328014 6.268269 -34.233058 0.908180 0.000000 0.000001 -17.943030 -35.896466 13.484667 -0.000001 -0.000002 3.819489 -16.096480 28.963458 -2.260252 0.000000 -0.000003 4.004300 -17.981470 6.111719 -7.213184 -0.000000 1.362270 0.590315 -0.000000 -0.000002 -0.000002 -0.908180 0.000000 0.000001 -12.788844 -26.835788 -33.343949 0.000001 -0.000002 3.819490 20.239650 28.105124 11.778000 -0.000000 -0.000002 4.004300 27.027895 -1.601061 13.044875 -0.000000 1.362270 0.590317 -0.000001 -0.000006 0.000003 
-0.398431 0.209515 -7.576836 1.117011 18.386280 1.863349 0.000000 0.000002 -2.776948 4.425006 -19.580281 12.242017 0.000001 0.000001 -2.213882 3.689540 10.988943 3.367191 -0.000000 0.181638 -1.407681 2.399474 0.042517 -9.395889 0.365767 -0.048012 -1.787591 -0.192486 -4.040736 17.471721 1.305162 -0.000000 -0.000006 7.286372 -12.103380 -8.227939 2.559211 0.000000 -0.000001 1.439544 -12.931332 0.116021 2.378451 0.000001 -0.000001 -13.945531 -13.394019 3.871589 -0.360720 -0.048012 -1.787588 4.188316 -1.379192 -13.832941 -1.305160 0.000001 0.000000 -27.499907 22.004445 17.812312 -2.559208 0.000001 0.000000 -69.878361 32.728036 -37.475011 -2.378451 -0.000002 -0.000002 2.348882 6.246172 -34.237064 0.908180 -0.000000 0.000000 -17.958003 -35.957114 13.520710 -0.000001 -0.000001 3.819490 -16.029568 28.979779 -2.247130 0.000000 -0.000002 4.004300 -17.945200 6.077976 -7.236754 0.000000 1.362270 0.590316 0.000005 -0.000004 -0.000002 -0.908180 -0.000000 0.000000 -12.764946 -26.826987 -33.274875 0.000001 -0.000002 3.819489 20.235113 28.130117 11.791857 0.000001 -0.000002 4.004301 27.083003 -1.633039 13.071387 -0.000000 1.362270 0.590316 -0.000001 -0.000003 -0.000002 
-0.400259 0.210327 -7.576165 1.048252 18.389205 1.803279 0.000000 0.000002 -2.776946 4.342526 -19.640636 12.094277 -0.000000 0.000001 -2.213881 3.437278 11.087282 3.042579 -0.000000 0.181638 -1.407681 2.220058 0.170533 -8.993945 0.365766 -0.048012 -1.787590 -0.166623 -4.186170 17.481613 1.305162 -0.000001 -0.000002 7.678084 -12.052433 -8.015138 2.559211 -0.000001 0.000004 1.440825 -12.843717 0.053936 2.378452 0.000001 -0.000003 -13.939042 -13.321151 4.002142 -0.360721 -0.048012 -1.787592 4.191416 -1.401318 -13.863896 -1.305161 0.000002 0.000002 -27.478022 21.877876 18.152845 -2.559209 0.000001 -0.000002 -69.970869 32.720820 -37.288636 -2.378451 -0.000000 -0.000001 2.396913 6.328251 -34.182211 0.908180 -0.000000 0.000001 -17.848548 -36.005581 13.644045 -0.000001 -0.000002 3.819490 -15.962383 29.008083 -2.311219 -0.000001 -0.000003 4.004301 -17.987493 6.059956 -7.191464 0.000000 1.362270 0.590317 0.000002 -0.000001 -0.000001 -0.908180 -0.000000 0.000000 -12.735261 -26.809041 -33.200395 -0.000000 -0.000002 3.819489 20.324172 28.159376 11.767362 0.000001 -0.000002 4.004299 27.076101 -1.664213 13.090145 -0.000000 1.362270 0.590317 -0.000003 -0.000000 -0.000001 
-0.401301 0.210826 -7.575920 1.006119 18.397681 1.729406 -0.000000 0.000002 -2.776947 4.260225 -19.694760 11.970461 -0.000000 0.000001 -2.213877 3.199312 11.208789 2.599266 0.000000 0.181638 -1.407682 2.071319 0.237075 -8.446976 0.365766 -0.048012 -1.787586 -0.209845 -4.342664 17.430571 1.305160 -0.000000 -0.000002 8.159557 -12.121306 -7.741356 2.559212 -0.000001 -0.000002 1.372206 -12.671128 -0.033977 2.378449 0.000001 0.000002 -13.896270 -13.165226 4.161033 -0.360720 -0.048012 -1.787588 4.184264 -1.406379 -13.906332 -1.305160 0.000001 0.000001 -27.502619 21.897703 18.522904 -2.559211 0.000000 0.000001 -69.886810 32.738616 -37.358956 -2.378450 -0.000001 -0.000000 2.467153 6.315293 -34.156284 0.908180 0.000001 0.000001 -17.821010 -36.068651 13.708520 -0.000000 -0.000002 3.819489 -15.905470 29.021918 -2.303880 0.000000 -0.000002 4.004301 -17.984778 6.028451 -7.222584 -0.000000 1.362270 0.590317 0.000006 -0.000003 0.000002 -0.908180 0.000001 0.000001 -12.709140 -26.797023 -33.126520 0.000001 -0.000002 3.819489 20.361612 28.162501 11.784825 0.000001 -0.000002 4.004301 27.097088 -1.660199 13.087175 -0.000000 1.362270 0.590319 -0.000001 -0.000003 0.000003 
-0.401734 0.211979 -7.575764 0.972337 18.380461 1.674044 0.000000 0.000002 -2.776945 4.136457 -19.740978 11.800520 -0.000001 0.000001 -2.213879 2.968660 11.364119 2.078934 -0.000001 0.181636 -1.407681 1.944224 0.291227 -7.790188 0.365767 -0.048012 -1.787591 -0.260323 -4.437801 17.360410 1.305161 -0.000000 -0.000001 8.660274 -12.113445 -7.402532 2.559211 0.000001 0.000002 1.320678 -12.568014 -0.168253 2.378450 0.000001 0.000002 -13.958869 -13.086348 4.356018 -0.360721 -0.048012 -1.787589 4.226981 -1.314563 -14.007328 -1.305160 0.000001 0.000002 -27.605700 21.680381 18.979158 -2.559210 0.000001 -0.000002 -69.778155 32.766695 -37.362135 -2.378450 0.000001 -0.000001 2.480643 6.399237 -34.157315 0.908180 0.000000 0.000001 -17.776488 -36.067586 13.777613 -0.000000 -0.000002 3.819489 -15.795697 29.009033 -2.354843 0.000000 -0.000002 4.004302 -18.050341 5.988393 -7.213835 -0.000000 1.362269 0.590315 0.000004 -0.000000 0.000002 -0.908180 0.000000 0.000001 -12.669754 -26.753431 -33.060714 0.000002 -0.000001 3.819490 20.389226 28.149356 11.802288 0.000001 -0.000003 4.004303 27.099259 -1.657595 13.075066 0.000001 1.362270 0.590316 0.000003 -0.000005 -0.000001 
